<svg width="24" height="24" viewBox="0 0 24 24" fill="none" xmlns="http://www.w3.org/2000/svg">
<path d="M12.042 2.5C14.5762 2.50004 16.9474 3.48215 18.7334 5.25977C20.5186 7.03682 21.4999 9.40022 21.5 11.916C21.5 17.1027 17.2542 21.3271 12.042 21.3271H12.0371C10.4536 21.3271 8.89809 20.9299 7.5166 20.1816C7.43307 20.1364 7.33864 20.1159 7.24512 20.1221L7.15137 20.1377L2.71191 21.2969L3.89648 16.9971C3.93199 16.868 3.91463 16.7301 3.84766 16.6143C3.01935 15.1841 2.58339 13.5616 2.58398 11.9111C2.58411 6.72444 6.82993 2.5 12.042 2.5ZM8.3916 6.66504C8.10407 6.66504 7.68446 6.7699 7.33691 7.14453C7.32479 7.1576 7.31132 7.17304 7.29395 7.19141C6.99983 7.50224 6.30273 8.24166 6.30273 9.62695C6.30276 10.3609 6.5663 11.0548 6.82617 11.5684C7.08947 12.0887 7.37211 12.4665 7.45117 12.5723L7.45605 12.5801C7.4579 12.5827 7.46106 12.5863 7.46484 12.5918C7.47255 12.603 7.48217 12.6176 7.49512 12.6367C7.81528 13.1099 9.49127 15.6045 12.0762 16.6211C13.0756 17.0145 13.7424 17.2044 14.2295 17.2861C14.7349 17.3709 15.0356 17.3366 15.2754 17.3076C15.3219 17.302 15.3597 17.2965 15.3965 17.293L15.3975 17.2939C15.7502 17.261 16.211 17.0578 16.5889 16.8145C16.9602 16.5753 17.3956 16.2055 17.5625 15.7451L17.5635 15.7412C17.6841 15.4005 17.7464 15.0808 17.7686 14.8223C17.7796 14.6935 17.7818 14.5718 17.7734 14.4658C17.7687 14.4063 17.7582 14.3047 17.7197 14.2012L17.6709 14.0986L17.5996 13.999C17.5234 13.9094 17.4369 13.8495 17.373 13.8105C17.2875 13.7583 17.186 13.711 17.1045 13.6719C17.0602 13.6506 17.0157 13.6289 16.9688 13.6055C16.8377 13.5403 16.4551 13.3518 16.0752 13.1689C15.7096 12.993 15.3064 12.8026 15.1602 12.748C15.0523 12.7078 14.8414 12.6272 14.6113 12.6543C14.3301 12.6875 14.1299 12.8564 13.9922 13.0635C13.8528 13.2695 13.4477 13.7446 13.2578 13.9658C13.2567 13.9653 13.2551 13.9654 13.2539 13.9648C13.1971 13.9366 13.1255 13.9059 13.0605 13.8779C12.7156 13.7291 12.0559 13.4446 11.291 12.7637L11.29 12.7627C10.6428 12.189 10.1803 11.4801 10 11.1807C10.0904 11.0891 10.1889 10.9726 10.2656 10.8799C10.3148 10.8204 10.3588 10.7665 10.4004 10.7188C10.561 10.5343 10.6336 10.3817 10.7031 10.2373C10.7122 10.2185 10.7212 10.1997 10.7305 10.1807C10.9104 9.81171 10.8081 9.48842 10.708 9.28906C10.7071 9.28708 10.7 9.27228 10.6846 9.23633C10.669 9.20011 10.6491 9.15168 10.625 9.09375C10.5769 8.97805 10.5147 8.82785 10.4463 8.66113C10.2723 8.23743 10.053 7.70264 9.9209 7.4082V7.40723L9.82324 7.21777C9.71784 7.03904 9.58759 6.89586 9.42188 6.7998C9.20468 6.67405 8.99176 6.67227 8.90137 6.66992H8.90234C8.74418 6.6647 8.56235 6.66504 8.3916 6.66504Z" fill="#82FF80" stroke="#82FF80" stroke-linejoin="round"/>
</svg>
